<?xml version="1.0" encoding="iso-8859-1"?>
<!-- Generator: Adobe Illustrator 19.0.0, SVG Export Plug-In . SVG Version: 6.00 Build 0)  -->
<svg version="1.1" id="Capa_1" xmlns="http://www.w3.org/2000/svg" xmlns:xlink="http://www.w3.org/1999/xlink" x="0px" y="0px"
	 viewBox="0 0 512 512" style="enable-background:new 0 0 512 512;" xml:space="preserve">
<g>
	<g>
		<path d="M392,0H200c-26.51,0-48,21.49-48,48v80h32V96h224v288H184v-64h-32v144c0,26.51,21.49,48,48,48h192c26.51,0,48-21.49,48-48
			V48C440,21.49,418.51,0,392,0z M408,464c0,8.837-7.163,16-16,16H200c-8.837,0-16-7.163-16-16v-48h224V464z M408,64H184V48
			c0-8.837,7.163-16,16-16h192c8.837,0,16,7.163,16,16V64z"/>
	</g>
</g>
<g>
	<g>
		<rect x="280" y="432" width="32" height="32"/>
	</g>
</g>
<g>
	<g>
		<path d="M343.744,174.704c-0.012-1-0.119-1.996-0.32-2.976c-0.112-0.4-0.368-0.704-0.496-1.072
			c-0.26-0.683-0.57-1.346-0.928-1.984c-0.55-1.074-1.227-2.079-2.016-2.992c-0.448-0.561-0.929-1.095-1.44-1.6
			c-0.975-0.834-2.05-1.543-3.2-2.112c-0.515-0.331-1.049-0.63-1.6-0.896c-1.833-0.707-3.78-1.07-5.744-1.072H168
			c-1.964,0.029-3.906,0.42-5.728,1.152c-0.551,0.266-1.085,0.565-1.6,0.896c-1.15,0.569-2.225,1.278-3.2,2.112
			c-0.511,0.505-0.992,1.039-1.44,1.6c-0.789,0.913-1.466,1.918-2.016,2.992c-0.356,0.631-0.661,1.289-0.912,1.968
			c-0.144,0.384-0.4,0.688-0.512,1.088c-0.201,0.98-0.308,1.976-0.32,2.976c0,0.448-0.256,0.832-0.256,1.296v96
			c0.044,8.799,7.185,15.911,15.984,15.92h160c8.837,0,16-7.163,16-16v-96C344,175.536,343.776,175.152,343.744,174.704z
			 M270.24,192L248,205.344L225.76,192H270.24z M312,256H184v-51.744l55.76,33.456c5.071,3.047,11.409,3.047,16.48,0L312,204.256
			V256z"/>
	</g>
</g>
<g>
	<g>
		<rect x="104" y="176" width="32" height="32"/>
	</g>
</g>
<g>
	<g>
		<rect x="72" y="224" width="64" height="32"/>
	</g>
</g>
<g>
</g>
<g>
</g>
<g>
</g>
<g>
</g>
<g>
</g>
<g>
</g>
<g>
</g>
<g>
</g>
<g>
</g>
<g>
</g>
<g>
</g>
<g>
</g>
<g>
</g>
<g>
</g>
<g>
</g>
</svg>
