<?xml version="1.0" encoding="iso-8859-1"?>
<!-- Generator: Adobe Illustrator 19.0.0, SVG Export Plug-In . SVG Version: 6.00 Build 0)  -->
<svg version="1.1" id="Capa_1" xmlns="http://www.w3.org/2000/svg" xmlns:xlink="http://www.w3.org/1999/xlink" x="0px" y="0px"
	 viewBox="0 0 512 512" style="enable-background:new 0 0 512 512;" xml:space="preserve">
<g>
	<g>
		<path d="M416.386,339.277c5.111,0,9.253-4.143,9.253-9.253V46.265C425.639,20.754,404.885,0,379.373,0H132.627
			c-25.511,0-46.265,20.754-46.265,46.265v419.47c0,25.511,20.754,46.265,46.265,46.265h246.747
			c25.511,0,46.265-20.754,46.265-46.265v-86.361c0-5.11-4.142-9.253-9.253-9.253H104.867V46.265
			c0-15.307,12.452-27.759,27.759-27.759h246.747c15.306,0,27.759,12.452,27.759,27.759v27.759H144.964
			c-5.11,0-9.253,4.143-9.253,9.253c0,5.11,4.143,9.253,9.253,9.253h262.169v237.494
			C407.133,335.134,411.274,339.277,416.386,339.277z M407.133,388.627v77.108c0,15.307-12.453,27.759-27.759,27.759H132.627
			c-15.307,0-27.759-12.452-27.759-27.759v-77.108H407.133z"/>
	</g>
</g>
<g>
	<g>
		<path d="M256,407.133c-18.708,0-33.928,15.219-33.928,33.928s15.219,33.928,33.928,33.928c18.707,0,33.928-15.219,33.928-33.928
			S274.707,407.133,256,407.133z M256,456.482c-8.504,0-15.422-6.918-15.422-15.422s6.918-15.422,15.422-15.422
			s15.422,6.918,15.422,15.422S264.504,456.482,256,456.482z"/>
	</g>
</g>
<g>
	<g>
		<path d="M317.687,185.06H194.313c-25.511,0-46.265,20.754-46.265,46.265v37.012c0,5.11,4.143,9.253,9.253,9.253h61.687
			c5.11,0,9.253-4.143,9.253-9.253v-27.759h55.518v27.759c0,5.11,4.142,9.253,9.253,9.253h61.687c5.111,0,9.253-4.143,9.253-9.253
			v-37.012C363.952,205.814,343.198,185.06,317.687,185.06z M345.446,259.084h-43.181v-27.759c0-5.11-4.142-9.253-9.253-9.253
			h-74.024c-5.11,0-9.253,4.143-9.253,9.253v27.759h-43.181v-27.759c0-15.307,12.452-27.759,27.759-27.759h123.374
			c15.306,0,27.759,12.452,27.759,27.759V259.084z"/>
	</g>
</g>
<g>
	<g>
		<path d="M280.675,37.012h-49.349c-5.11,0-9.253,4.143-9.253,9.253c0,5.11,4.143,9.253,9.253,9.253h49.349
			c5.111,0,9.253-4.143,9.253-9.253C289.928,41.155,285.786,37.012,280.675,37.012z"/>
	</g>
</g>
<g>
</g>
<g>
</g>
<g>
</g>
<g>
</g>
<g>
</g>
<g>
</g>
<g>
</g>
<g>
</g>
<g>
</g>
<g>
</g>
<g>
</g>
<g>
</g>
<g>
</g>
<g>
</g>
<g>
</g>
</svg>
