<svg height="512pt" viewBox="0 -35 512.00138 512" width="512pt" xmlns="http://www.w3.org/2000/svg"><path d="m467.375 359.046875-79.445312-229.519531c-1.230469-3.554688-4.582032-5.941406-8.34375-5.941406h-35.308594v-26.480469c0-4.875-3.953125-8.828125-8.828125-8.828125h-35.3125c-4.875 0-8.828125 3.953125-8.828125 8.828125v26.480469h-70.617188v-26.480469c0-4.875-3.953125-8.828125-8.828125-8.828125h-35.3125c-4.875 0-8.828125 3.953125-8.828125 8.828125v26.480469h-35.308594c-3.761718 0-7.113281 2.386718-8.34375 5.941406l-79.445312 229.519531c-.28125.851563-.429688 1.746094-.433594 2.648437 0 .085938-.054687.167969-.054687.253907v61.792969c0 9.75 7.90625 17.65625 17.65625 17.65625h388.414062c9.75 0 17.65625-7.90625 17.65625-17.65625v-61.8125c0-.085938-.054687-.167969-.054687-.253907-.007813-.894531-.152344-1.78125-.433594-2.628906zm-158.410156-253.113281h17.65625v17.652344h-17.65625zm-123.585938 0h17.65625v17.652344h-17.65625zm-46.679687 35.308594h234.601562l73.375 211.863281h-381.351562zm311.507812 282.484374h-388.414062v-52.96875h388.414062zm0 0"/><path d="m256 158.898438c-14.625 0-26.484375 11.855468-26.484375 26.480468s11.859375 26.484375 26.484375 26.484375 26.484375-11.859375 26.484375-26.484375-11.859375-26.480468-26.484375-26.480468zm0 35.308593c-4.875 0-8.828125-3.953125-8.828125-8.828125s3.953125-8.828125 8.828125-8.828125 8.828125 3.953125 8.828125 8.828125-3.953125 8.828125-8.828125 8.828125zm0 0"/><path d="m326.621094 158.898438c-14.625 0-26.484375 11.855468-26.484375 26.480468s11.859375 26.484375 26.484375 26.484375 26.480468-11.859375 26.480468-26.484375-11.855468-26.480468-26.480468-26.480468zm0 35.308593c-4.875 0-8.828125-3.953125-8.828125-8.828125s3.953125-8.828125 8.828125-8.828125 8.828125 3.953125 8.828125 8.828125-3.953125 8.828125-8.828125 8.828125zm0 0"/><path d="m185.378906 158.898438c-14.625 0-26.480468 11.855468-26.480468 26.480468s11.855468 26.484375 26.480468 26.484375 26.484375-11.859375 26.484375-26.484375-11.859375-26.480468-26.484375-26.480468zm0 35.308593c-4.875 0-8.828125-3.953125-8.828125-8.828125s3.953125-8.828125 8.828125-8.828125 8.828125 3.953125 8.828125 8.828125-3.953125 8.828125-8.828125 8.828125zm0 0"/><path d="m256 220.691406c-14.625 0-26.484375 11.855469-26.484375 26.480469s11.859375 26.484375 26.484375 26.484375 26.484375-11.859375 26.484375-26.484375-11.859375-26.480469-26.484375-26.480469zm0 35.308594c-4.875 0-8.828125-3.953125-8.828125-8.828125s3.953125-8.828125 8.828125-8.828125 8.828125 3.953125 8.828125 8.828125-3.953125 8.828125-8.828125 8.828125zm0 0"/><path d="m326.621094 220.691406c-14.625 0-26.484375 11.855469-26.484375 26.480469s11.859375 26.484375 26.484375 26.484375 26.480468-11.859375 26.480468-26.484375-11.855468-26.480469-26.480468-26.480469zm0 35.308594c-4.875 0-8.828125-3.953125-8.828125-8.828125s3.953125-8.828125 8.828125-8.828125 8.828125 3.953125 8.828125 8.828125-3.953125 8.828125-8.828125 8.828125zm0 0"/><path d="m185.378906 220.691406c-14.625 0-26.480468 11.855469-26.480468 26.480469s11.855468 26.484375 26.480468 26.484375 26.484375-11.859375 26.484375-26.484375-11.859375-26.480469-26.484375-26.480469zm0 35.308594c-4.875 0-8.828125-3.953125-8.828125-8.828125s3.953125-8.828125 8.828125-8.828125 8.828125 3.953125 8.828125 8.828125-3.953125 8.828125-8.828125 8.828125zm0 0"/><path d="m256 282.484375c-14.625 0-26.484375 11.855469-26.484375 26.480469s11.859375 26.484375 26.484375 26.484375 26.484375-11.859375 26.484375-26.484375-11.859375-26.480469-26.484375-26.480469zm0 35.308594c-4.875 0-8.828125-3.953125-8.828125-8.828125s3.953125-8.828125 8.828125-8.828125 8.828125 3.953125 8.828125 8.828125-3.953125 8.828125-8.828125 8.828125zm0 0"/><path d="m326.621094 282.484375c-14.625 0-26.484375 11.855469-26.484375 26.480469s11.859375 26.484375 26.484375 26.484375 26.480468-11.859375 26.480468-26.484375-11.855468-26.480469-26.480468-26.480469zm0 35.308594c-4.875 0-8.828125-3.953125-8.828125-8.828125s3.953125-8.828125 8.828125-8.828125 8.828125 3.953125 8.828125 8.828125-3.953125 8.828125-8.828125 8.828125zm0 0"/><path d="m185.378906 282.484375c-14.625 0-26.480468 11.855469-26.480468 26.480469s11.855468 26.484375 26.480468 26.484375 26.484375-11.859375 26.484375-26.484375-11.859375-26.480469-26.484375-26.480469zm0 35.308594c-4.875 0-8.828125-3.953125-8.828125-8.828125s3.953125-8.828125 8.828125-8.828125 8.828125 3.953125 8.828125 8.828125-3.953125 8.828125-8.828125 8.828125zm0 0"/><path d="m432.550781 0h-353.101562c-43.855469.0546875-79.3945315 35.59375-79.449219 79.449219v52.964843c0 4.875 3.953125 8.828126 8.828125 8.828126h97.101563c4.878906 0 8.828124-3.953126 8.828124-8.828126v-44.136718c0-4.875 3.953126-8.828125 8.828126-8.828125h264.828124c4.875 0 8.828126 3.953125 8.828126 8.828125v44.136718c0 4.875 3.953124 8.828126 8.828124 8.828126h97.101563c4.878906 0 8.828125-3.953126 8.828125-8.828126v-52.964843c-.054688-43.855469-35.59375-79.3945315-79.449219-79.449219zm-335.445312 123.585938h-79.449219v-17.65625h79.449219zm291.308593-61.792969h-264.828124c-14.625 0-26.480469 11.859375-26.480469 26.484375h-79.449219v-8.828125c.039062-34.113281 27.679688-61.753907 61.792969-61.792969h353.101562c34.113281.039062 61.753907 27.679688 61.792969 61.792969v8.828125h-79.449219c0-14.625-11.855469-26.484375-26.480469-26.484375zm105.929688 61.792969h-79.449219v-17.65625h79.449219zm0 0"/></svg>